<?xml version="1.0" standalone="no"?>
<!DOCTYPE svg PUBLIC "-//W3C//DTD SVG 20010904//EN"
 "http://www.w3.org/TR/2001/REC-SVG-20010904/DTD/svg10.dtd">
<svg version="1.0" xmlns="http://www.w3.org/2000/svg"
 width="246.000000pt" height="246.000000pt" viewBox="0 0 246.000000 246.000000"
 preserveAspectRatio="xMidYMid meet">
<metadata>
Created by potrace 1.11, written by Peter Selinger 2001-2013
</metadata>
<g transform="translate(0.000000,246.000000) scale(0.100000,-0.100000)"
fill="#000000" stroke="none">
<path d="M1305 1999 c-49 -16 -104 -36 -122 -44 -17 -8 -38 -15 -47 -15 -12 0
-44 -39 -38 -47 1 -2 2 -4 1 -5 0 -2 -2 -21 -4 -43 -3 -22 -7 -52 -10 -67 -6
-25 -8 -26 -33 -15 -15 6 -29 14 -32 17 -9 10 -50 30 -60 30 -15 0 -39 -53
-46 -106 -3 -27 -8 -52 -11 -56 -2 -5 1 -8 7 -8 7 0 8 -6 1 -18 -7 -13 -7 -22
1 -30 13 -13 21 -85 8 -77 -6 4 -10 13 -10 21 0 8 -4 14 -8 14 -6 0 -21 28
-38 75 -2 6 -10 39 -18 73 -8 35 -17 66 -19 69 -3 2 -25 -8 -49 -23 -23 -15
-44 -27 -45 -26 -1 1 -17 -12 -35 -28 -18 -17 -38 -30 -46 -30 -7 0 -10 -4 -7
-10 3 -5 2 -10 -4 -10 -30 0 -269 -224 -347 -325 -27 -36 -35 -75 -15 -75 13
0 13 -137 1 -145 -8 -5 -8 -11 1 -21 7 -8 7 -14 1 -14 -5 0 -15 -13 -22 -30
-13 -31 -102 -120 -120 -120 -6 0 -10 -59 -10 -170 l0 -170 146 0 145 0 -1 48
c-1 26 -1 52 0 57 5 25 -4 52 -26 82 -13 17 -24 34 -24 37 0 3 33 -12 72 -34
40 -22 76 -40 81 -40 4 0 7 16 7 35 0 19 -4 35 -10 35 -5 0 -7 6 -5 12 3 7 7
36 8 63 2 34 13 65 32 95 31 49 123 150 137 150 8 0 -8 -39 -21 -50 -8 -7 -39
-73 -37 -81 0 -3 -11 -22 -26 -41 -15 -20 -25 -37 -23 -40 6 -6 17 -69 19
-105 0 -18 5 -33 10 -33 4 0 3 -6 -3 -14 -9 -11 -9 -17 1 -27 7 -8 14 -39 15
-69 2 -30 5 -61 8 -68 3 -9 56 -12 216 -12 l211 0 -7 27 c-3 16 -12 35 -19 43
-7 8 -35 55 -61 104 l-48 88 35 34 c20 18 47 36 61 39 15 4 31 13 38 21 6 8
21 14 34 14 12 0 25 3 29 7 4 4 19 9 34 11 15 2 29 6 32 10 3 4 30 7 60 7 30
0 64 3 76 7 56 17 70 -45 30 -134 -37 -83 -95 -121 -126 -83 -20 24 3 65 35
65 16 0 25 6 25 15 0 8 -4 15 -10 15 -5 0 -10 6 -10 14 0 18 -54 28 -88 15
-15 -6 -29 -10 -32 -10 -15 0 -39 -71 -40 -117 0 -84 45 -147 126 -175 38 -12
45 -12 90 8 27 12 68 42 91 67 23 26 44 44 47 41 3 -3 8 6 12 21 3 14 10 23
15 20 5 -3 9 1 9 9 0 8 7 20 15 27 9 7 13 15 10 18 -3 3 1 12 9 21 15 18 69
149 69 169 0 6 4 12 8 12 3 0 10 20 13 45 6 39 26 74 26 46 0 -6 5 -11 11 -11
11 0 67 -23 102 -41 12 -6 17 -5 17 3 0 9 3 9 11 1 7 -7 21 -8 39 -3 16 5 31
6 34 3 7 -7 75 -7 96 0 8 2 35 10 60 17 25 6 72 26 105 43 64 34 165 126 165
150 0 8 6 17 13 20 15 6 44 90 53 152 14 101 0 187 -43 267 -52 95 -168 147
-231 102 -12 -8 -22 -12 -22 -7 0 4 -9 -5 -20 -22 -27 -41 -25 -48 10 -30 38
20 58 19 96 -4 92 -56 116 -221 53 -355 -19 -41 -104 -144 -115 -139 -2 1 -24
-7 -49 -18 -26 -11 -63 -23 -83 -26 -20 -2 -44 -7 -52 -10 -8 -4 -19 -5 -25
-4 -5 2 -30 5 -55 8 -25 3 -53 10 -62 15 -10 5 -18 5 -18 1 0 -4 -4 -3 -8 2
-4 6 -19 16 -34 22 l-28 13 -2 132 c-1 161 -3 186 -12 195 -3 4 -10 2 -15 -3
-9 -10 -42 -124 -44 -155 -1 -10 -4 -19 -8 -19 -4 0 -9 -12 -12 -28 -9 -46
-48 -141 -63 -157 -9 -8 -12 -15 -8 -15 5 0 -14 -22 -41 -50 -26 -27 -52 -47
-57 -44 -4 3 -8 0 -8 -6 0 -6 -8 -10 -17 -9 -10 1 -26 -1 -36 -6 -32 -14 -124
2 -178 31 -52 29 -114 95 -107 116 2 6 18 -2 37 -21 37 -36 96 -55 85 -27 -3
9 -1 16 6 16 6 0 9 4 6 9 -3 4 3 16 14 26 19 17 46 17 106 0 14 -5 31 2 53 21
33 28 85 117 74 128 -4 3 -2 6 4 6 10 0 23 28 28 60 1 8 5 22 8 30 20 46 45
129 40 134 -4 3 -1 6 5 6 7 0 12 9 12 20 0 11 5 20 12 20 6 0 8 3 5 7 -4 3 0
17 8 30 9 13 13 23 9 23 -4 0 -1 7 6 15 15 18 26 12 34 -19 3 -14 11 -38 18
-53 6 -15 12 -31 12 -35 3 -25 17 -11 36 38 30 72 87 134 124 134 16 0 41 -9
57 -21 38 -27 50 -17 30 24 -46 96 -166 102 -250 13 -19 -20 -38 -36 -41 -36
-4 0 -14 17 -24 38 -21 43 -74 129 -96 153 -8 10 -23 29 -33 43 -22 32 -31 32
-142 -5z m-129 -437 c5 -4 36 -19 69 -31 85 -34 95 -45 57 -65 -57 -29 -132
-12 -132 31 0 8 -3 12 -7 10 -5 -3 -8 10 -9 29 -1 34 4 40 22 26z"/>
<path d="M1674 972 c-4 -18 -11 -32 -16 -32 -6 0 -6 -6 1 -14 8 -10 9 -15 1
-18 -6 -2 -12 -10 -14 -18 -1 -8 -8 -26 -16 -40 -8 -14 -24 -46 -37 -71 -13
-26 -35 -59 -48 -73 -14 -15 -25 -30 -25 -34 0 -5 -18 -26 -40 -47 -22 -21
-40 -43 -40 -47 0 -4 88 -8 195 -8 107 0 195 1 195 3 0 8 -141 421 -145 425
-3 3 -8 -9 -11 -26z"/>
</g>
</svg>
